/* XPM */
static const char *donotepad[] = {
/* columns rows colors chars-per-pixel */
"48 48 8 1 ",
"  c black",
". c #023902390239",
"X c #221322132213",
"o c #6C7C6C7C6C7C",
"O c #8FFF8FFF8FFF",
"+ c #A3F1A3F1A3F1",
"@ c white",
"# c None",
/* pixels */
"################################################",
"################################################",
"################################################",
"################################################",
"################################################",
"################################################",
"################################################",
"################################################",
"################################################",
"################################################",
"################################################",
"##############################################  ",
"###########################################     ",
"#########################################       ",
"#######################################         ",
"#####################################           ",
"###################################             ",
"##################################              ",
"################################                ",
"###############################                 ",
"#############################                   ",
"############################                    ",
"###########################                     ",
"##########################                      ",
"#########################                       ",
"########################                        ",
"#######################                         ",
"######################                          ",
"#####################                           ",
"####################                            ",
"####################                            ",
"###################                             ",
"##################                              ",
"##################                              ",
"#################                               ",
"################                                ",
"################                                ",
"###############                                 ",
"###############                                 ",
"##############                                  ",
"##############                                  ",
"#############                                   ",
"#############                                   ",
"############                                    ",
"############                                    ",
"############                            XoOoX   ",
"###########                            O@@@@@O  ",
"###########                           O@@@@@@@+ "
};
