<?xml version="1.0" encoding="UTF-8"?>
<svg width="128" height="128" viewBox="0 0 128 128" xmlns="http://www.w3.org/2000/svg">
  <defs>
    <linearGradient id="bg" x1="0%" y1="0%" x2="100%" y2="100%">
      <stop offset="0%" style="stop-color:#3b82f6"/>
      <stop offset="100%" style="stop-color:#1d4ed8"/>
    </linearGradient>
  </defs>
  
  <!-- Modern circular background -->
  <circle cx="64" cy="64" r="56" fill="url(#bg)"/>
  
  <!-- Simple document icon -->
  <g transform="translate(64, 64)">
    <!-- Main document -->
    <rect x="-18" y="-24" width="28" height="36" rx="3" fill="white"/>
    
    <!-- Folded corner -->
    <path d="M10 -24 L10 -16 L18 -16 Z" fill="#f1f5f9"/>
    
    <!-- Content lines -->
    <rect x="-14" y="-14" width="16" height="2" rx="1" fill="#e2e8f0"/>
    <rect x="-14" y="-8" width="20" height="2" rx="1" fill="#e2e8f0"/>
    <rect x="-14" y="-2" width="12" height="2" rx="1" fill="#e2e8f0"/>
    
    <!-- Modern checkmark -->
    <circle cx="-6" cy="8" r="6" fill="#10b981"/>
    <path d="M-9 8 L-6 11 L-3 5" stroke="white" stroke-width="2" fill="none" stroke-linecap="round" stroke-linejoin="round"/>
  </g>
</svg>
  <line x1="46" y1="47" x2="72" y2="47" stroke="#666" stroke-width="1.5"/>
  <line x1="46" y1="53" x2="78" y2="53" stroke="#666" stroke-width="1.5"/>
  
  <!-- Markdown/notes section -->
  <text x="36" y="72" font-family="monospace" font-size="8" fill="#1976D2" font-weight="bold"># Notes</text>
  <line x1="36" y1="76" x2="68" y2="76" stroke="#999" stroke-width="1"/>
  <line x1="36" y1="80" x2="74" y2="80" stroke="#999" stroke-width="1"/>
  <line x1="36" y1="84" x2="70" y2="84" stroke="#999" stroke-width="1"/>
  
  <!-- Pen/pencil icon -->
  <g transform="translate(92, 88) rotate(45)">
    <rect x="0" y="0" width="3" height="16" fill="#FFA726"/>
    <polygon points="0,0 3,0 1.5,4" fill="#FF7043"/>
    <circle cx="1.5" cy="16" r="1" fill="#757575"/>
  </g>
  
  <!-- Small highlight/accent -->
  <circle cx="20" cy="20" r="3" fill="#FFD54F" opacity="0.8"/>
</svg>
